<svg shape-rendering="crispEdges" version="1.1" xmlns="http://www.w3.org/2000/svg" viewBox="0 0 68 68" preserveAspectRatio="xMinYMin meet"><rect width="100%" height="100%" fill="white" cx="0" cy="0"></rect><path d="M1,1l2,0 0,2 -2,0 0,-2z M3,1l2,0 0,2 -2,0 0,-2z M5,1l2,0 0,2 -2,0 0,-2z M7,1l2,0 0,2 -2,0 0,-2z M9,1l2,0 0,2 -2,0 0,-2z M11,1l2,0 0,2 -2,0 0,-2z M13,1l2,0 0,2 -2,0 0,-2z M17,1l2,0 0,2 -2,0 0,-2z M19,1l2,0 0,2 -2,0 0,-2z M21,1l2,0 0,2 -2,0 0,-2z M29,1l2,0 0,2 -2,0 0,-2z M31,1l2,0 0,2 -2,0 0,-2z M35,1l2,0 0,2 -2,0 0,-2z M37,1l2,0 0,2 -2,0 0,-2z M47,1l2,0 0,2 -2,0 0,-2z M53,1l2,0 0,2 -2,0 0,-2z M55,1l2,0 0,2 -2,0 0,-2z M57,1l2,0 0,2 -2,0 0,-2z M59,1l2,0 0,2 -2,0 0,-2z M61,1l2,0 0,2 -2,0 0,-2z M63,1l2,0 0,2 -2,0 0,-2z M65,1l2,0 0,2 -2,0 0,-2z M1,3l2,0 0,2 -2,0 0,-2z M13,3l2,0 0,2 -2,0 0,-2z M19,3l2,0 0,2 -2,0 0,-2z M21,3l2,0 0,2 -2,0 0,-2z M33,3l2,0 0,2 -2,0 0,-2z M35,3l2,0 0,2 -2,0 0,-2z M39,3l2,0 0,2 -2,0 0,-2z M45,3l2,0 0,2 -2,0 0,-2z M53,3l2,0 0,2 -2,0 0,-2z M65,3l2,0 0,2 -2,0 0,-2z M1,5l2,0 0,2 -2,0 0,-2z M5,5l2,0 0,2 -2,0 0,-2z M7,5l2,0 0,2 -2,0 0,-2z M9,5l2,0 0,2 -2,0 0,-2z M13,5l2,0 0,2 -2,0 0,-2z M19,5l2,0 0,2 -2,0 0,-2z M21,5l2,0 0,2 -2,0 0,-2z M23,5l2,0 0,2 -2,0 0,-2z M25,5l2,0 0,2 -2,0 0,-2z M27,5l2,0 0,2 -2,0 0,-2z M39,5l2,0 0,2 -2,0 0,-2z M43,5l2,0 0,2 -2,0 0,-2z M47,5l2,0 0,2 -2,0 0,-2z M49,5l2,0 0,2 -2,0 0,-2z M53,5l2,0 0,2 -2,0 0,-2z M57,5l2,0 0,2 -2,0 0,-2z M59,5l2,0 0,2 -2,0 0,-2z M61,5l2,0 0,2 -2,0 0,-2z M65,5l2,0 0,2 -2,0 0,-2z M1,7l2,0 0,2 -2,0 0,-2z M5,7l2,0 0,2 -2,0 0,-2z M7,7l2,0 0,2 -2,0 0,-2z M9,7l2,0 0,2 -2,0 0,-2z M13,7l2,0 0,2 -2,0 0,-2z M17,7l2,0 0,2 -2,0 0,-2z M19,7l2,0 0,2 -2,0 0,-2z M23,7l2,0 0,2 -2,0 0,-2z M29,7l2,0 0,2 -2,0 0,-2z M35,7l2,0 0,2 -2,0 0,-2z M37,7l2,0 0,2 -2,0 0,-2z M41,7l2,0 0,2 -2,0 0,-2z M47,7l2,0 0,2 -2,0 0,-2z M53,7l2,0 0,2 -2,0 0,-2z M57,7l2,0 0,2 -2,0 0,-2z M59,7l2,0 0,2 -2,0 0,-2z M61,7l2,0 0,2 -2,0 0,-2z M65,7l2,0 0,2 -2,0 0,-2z M1,9l2,0 0,2 -2,0 0,-2z M5,9l2,0 0,2 -2,0 0,-2z M7,9l2,0 0,2 -2,0 0,-2z M9,9l2,0 0,2 -2,0 0,-2z M13,9l2,0 0,2 -2,0 0,-2z M17,9l2,0 0,2 -2,0 0,-2z M19,9l2,0 0,2 -2,0 0,-2z M21,9l2,0 0,2 -2,0 0,-2z M29,9l2,0 0,2 -2,0 0,-2z M35,9l2,0 0,2 -2,0 0,-2z M37,9l2,0 0,2 -2,0 0,-2z M39,9l2,0 0,2 -2,0 0,-2z M41,9l2,0 0,2 -2,0 0,-2z M47,9l2,0 0,2 -2,0 0,-2z M53,9l2,0 0,2 -2,0 0,-2z M57,9l2,0 0,2 -2,0 0,-2z M59,9l2,0 0,2 -2,0 0,-2z M61,9l2,0 0,2 -2,0 0,-2z M65,9l2,0 0,2 -2,0 0,-2z M1,11l2,0 0,2 -2,0 0,-2z M13,11l2,0 0,2 -2,0 0,-2z M17,11l2,0 0,2 -2,0 0,-2z M19,11l2,0 0,2 -2,0 0,-2z M21,11l2,0 0,2 -2,0 0,-2z M33,11l2,0 0,2 -2,0 0,-2z M37,11l2,0 0,2 -2,0 0,-2z M39,11l2,0 0,2 -2,0 0,-2z M43,11l2,0 0,2 -2,0 0,-2z M49,11l2,0 0,2 -2,0 0,-2z M53,11l2,0 0,2 -2,0 0,-2z M65,11l2,0 0,2 -2,0 0,-2z M1,13l2,0 0,2 -2,0 0,-2z M3,13l2,0 0,2 -2,0 0,-2z M5,13l2,0 0,2 -2,0 0,-2z M7,13l2,0 0,2 -2,0 0,-2z M9,13l2,0 0,2 -2,0 0,-2z M11,13l2,0 0,2 -2,0 0,-2z M13,13l2,0 0,2 -2,0 0,-2z M17,13l2,0 0,2 -2,0 0,-2z M21,13l2,0 0,2 -2,0 0,-2z M25,13l2,0 0,2 -2,0 0,-2z M29,13l2,0 0,2 -2,0 0,-2z M33,13l2,0 0,2 -2,0 0,-2z M37,13l2,0 0,2 -2,0 0,-2z M41,13l2,0 0,2 -2,0 0,-2z M45,13l2,0 0,2 -2,0 0,-2z M49,13l2,0 0,2 -2,0 0,-2z M53,13l2,0 0,2 -2,0 0,-2z M55,13l2,0 0,2 -2,0 0,-2z M57,13l2,0 0,2 -2,0 0,-2z M59,13l2,0 0,2 -2,0 0,-2z M61,13l2,0 0,2 -2,0 0,-2z M63,13l2,0 0,2 -2,0 0,-2z M65,13l2,0 0,2 -2,0 0,-2z M17,15l2,0 0,2 -2,0 0,-2z M25,15l2,0 0,2 -2,0 0,-2z M29,15l2,0 0,2 -2,0 0,-2z M31,15l2,0 0,2 -2,0 0,-2z M33,15l2,0 0,2 -2,0 0,-2z M35,15l2,0 0,2 -2,0 0,-2z M37,15l2,0 0,2 -2,0 0,-2z M43,15l2,0 0,2 -2,0 0,-2z M45,15l2,0 0,2 -2,0 0,-2z M1,17l2,0 0,2 -2,0 0,-2z M9,17l2,0 0,2 -2,0 0,-2z M13,17l2,0 0,2 -2,0 0,-2z M15,17l2,0 0,2 -2,0 0,-2z M17,17l2,0 0,2 -2,0 0,-2z M35,17l2,0 0,2 -2,0 0,-2z M39,17l2,0 0,2 -2,0 0,-2z M41,17l2,0 0,2 -2,0 0,-2z M43,17l2,0 0,2 -2,0 0,-2z M47,17l2,0 0,2 -2,0 0,-2z M51,17l2,0 0,2 -2,0 0,-2z M53,17l2,0 0,2 -2,0 0,-2z M55,17l2,0 0,2 -2,0 0,-2z M57,17l2,0 0,2 -2,0 0,-2z M59,17l2,0 0,2 -2,0 0,-2z M65,17l2,0 0,2 -2,0 0,-2z M3,19l2,0 0,2 -2,0 0,-2z M11,19l2,0 0,2 -2,0 0,-2z M17,19l2,0 0,2 -2,0 0,-2z M23,19l2,0 0,2 -2,0 0,-2z M25,19l2,0 0,2 -2,0 0,-2z M27,19l2,0 0,2 -2,0 0,-2z M31,19l2,0 0,2 -2,0 0,-2z M33,19l2,0 0,2 -2,0 0,-2z M37,19l2,0 0,2 -2,0 0,-2z M43,19l2,0 0,2 -2,0 0,-2z M47,19l2,0 0,2 -2,0 0,-2z M51,19l2,0 0,2 -2,0 0,-2z M59,19l2,0 0,2 -2,0 0,-2z M61,19l2,0 0,2 -2,0 0,-2z M63,19l2,0 0,2 -2,0 0,-2z M1,21l2,0 0,2 -2,0 0,-2z M3,21l2,0 0,2 -2,0 0,-2z M9,21l2,0 0,2 -2,0 0,-2z M11,21l2,0 0,2 -2,0 0,-2z M13,21l2,0 0,2 -2,0 0,-2z M23,21l2,0 0,2 -2,0 0,-2z M25,21l2,0 0,2 -2,0 0,-2z M31,21l2,0 0,2 -2,0 0,-2z M35,21l2,0 0,2 -2,0 0,-2z M41,21l2,0 0,2 -2,0 0,-2z M47,21l2,0 0,2 -2,0 0,-2z M51,21l2,0 0,2 -2,0 0,-2z M53,21l2,0 0,2 -2,0 0,-2z M59,21l2,0 0,2 -2,0 0,-2z M63,21l2,0 0,2 -2,0 0,-2z M3,23l2,0 0,2 -2,0 0,-2z M9,23l2,0 0,2 -2,0 0,-2z M19,23l2,0 0,2 -2,0 0,-2z M23,23l2,0 0,2 -2,0 0,-2z M25,23l2,0 0,2 -2,0 0,-2z M29,23l2,0 0,2 -2,0 0,-2z M31,23l2,0 0,2 -2,0 0,-2z M33,23l2,0 0,2 -2,0 0,-2z M35,23l2,0 0,2 -2,0 0,-2z M37,23l2,0 0,2 -2,0 0,-2z M39,23l2,0 0,2 -2,0 0,-2z M43,23l2,0 0,2 -2,0 0,-2z M45,23l2,0 0,2 -2,0 0,-2z M47,23l2,0 0,2 -2,0 0,-2z M51,23l2,0 0,2 -2,0 0,-2z M63,23l2,0 0,2 -2,0 0,-2z M7,25l2,0 0,2 -2,0 0,-2z M13,25l2,0 0,2 -2,0 0,-2z M17,25l2,0 0,2 -2,0 0,-2z M19,25l2,0 0,2 -2,0 0,-2z M23,25l2,0 0,2 -2,0 0,-2z M25,25l2,0 0,2 -2,0 0,-2z M27,25l2,0 0,2 -2,0 0,-2z M29,25l2,0 0,2 -2,0 0,-2z M31,25l2,0 0,2 -2,0 0,-2z M37,25l2,0 0,2 -2,0 0,-2z M39,25l2,0 0,2 -2,0 0,-2z M41,25l2,0 0,2 -2,0 0,-2z M47,25l2,0 0,2 -2,0 0,-2z M53,25l2,0 0,2 -2,0 0,-2z M57,25l2,0 0,2 -2,0 0,-2z M59,25l2,0 0,2 -2,0 0,-2z M63,25l2,0 0,2 -2,0 0,-2z M1,27l2,0 0,2 -2,0 0,-2z M3,27l2,0 0,2 -2,0 0,-2z M5,27l2,0 0,2 -2,0 0,-2z M15,27l2,0 0,2 -2,0 0,-2z M17,27l2,0 0,2 -2,0 0,-2z M21,27l2,0 0,2 -2,0 0,-2z M33,27l2,0 0,2 -2,0 0,-2z M35,27l2,0 0,2 -2,0 0,-2z M39,27l2,0 0,2 -2,0 0,-2z M43,27l2,0 0,2 -2,0 0,-2z M47,27l2,0 0,2 -2,0 0,-2z M51,27l2,0 0,2 -2,0 0,-2z M59,27l2,0 0,2 -2,0 0,-2z M1,29l2,0 0,2 -2,0 0,-2z M3,29l2,0 0,2 -2,0 0,-2z M7,29l2,0 0,2 -2,0 0,-2z M11,29l2,0 0,2 -2,0 0,-2z M13,29l2,0 0,2 -2,0 0,-2z M17,29l2,0 0,2 -2,0 0,-2z M21,29l2,0 0,2 -2,0 0,-2z M27,29l2,0 0,2 -2,0 0,-2z M33,29l2,0 0,2 -2,0 0,-2z M39,29l2,0 0,2 -2,0 0,-2z M47,29l2,0 0,2 -2,0 0,-2z M49,29l2,0 0,2 -2,0 0,-2z M51,29l2,0 0,2 -2,0 0,-2z M53,29l2,0 0,2 -2,0 0,-2z M55,29l2,0 0,2 -2,0 0,-2z M57,29l2,0 0,2 -2,0 0,-2z M59,29l2,0 0,2 -2,0 0,-2z M63,29l2,0 0,2 -2,0 0,-2z M1,31l2,0 0,2 -2,0 0,-2z M9,31l2,0 0,2 -2,0 0,-2z M11,31l2,0 0,2 -2,0 0,-2z M21,31l2,0 0,2 -2,0 0,-2z M23,31l2,0 0,2 -2,0 0,-2z M25,31l2,0 0,2 -2,0 0,-2z M29,31l2,0 0,2 -2,0 0,-2z M35,31l2,0 0,2 -2,0 0,-2z M37,31l2,0 0,2 -2,0 0,-2z M39,31l2,0 0,2 -2,0 0,-2z M41,31l2,0 0,2 -2,0 0,-2z M43,31l2,0 0,2 -2,0 0,-2z M45,31l2,0 0,2 -2,0 0,-2z M47,31l2,0 0,2 -2,0 0,-2z M51,31l2,0 0,2 -2,0 0,-2z M53,31l2,0 0,2 -2,0 0,-2z M3,33l2,0 0,2 -2,0 0,-2z M7,33l2,0 0,2 -2,0 0,-2z M13,33l2,0 0,2 -2,0 0,-2z M15,33l2,0 0,2 -2,0 0,-2z M19,33l2,0 0,2 -2,0 0,-2z M25,33l2,0 0,2 -2,0 0,-2z M29,33l2,0 0,2 -2,0 0,-2z M31,33l2,0 0,2 -2,0 0,-2z M35,33l2,0 0,2 -2,0 0,-2z M43,33l2,0 0,2 -2,0 0,-2z M45,33l2,0 0,2 -2,0 0,-2z M49,33l2,0 0,2 -2,0 0,-2z M53,33l2,0 0,2 -2,0 0,-2z M57,33l2,0 0,2 -2,0 0,-2z M63,33l2,0 0,2 -2,0 0,-2z M3,35l2,0 0,2 -2,0 0,-2z M5,35l2,0 0,2 -2,0 0,-2z M9,35l2,0 0,2 -2,0 0,-2z M11,35l2,0 0,2 -2,0 0,-2z M17,35l2,0 0,2 -2,0 0,-2z M27,35l2,0 0,2 -2,0 0,-2z M29,35l2,0 0,2 -2,0 0,-2z M31,35l2,0 0,2 -2,0 0,-2z M33,35l2,0 0,2 -2,0 0,-2z M35,35l2,0 0,2 -2,0 0,-2z M37,35l2,0 0,2 -2,0 0,-2z M43,35l2,0 0,2 -2,0 0,-2z M47,35l2,0 0,2 -2,0 0,-2z M51,35l2,0 0,2 -2,0 0,-2z M59,35l2,0 0,2 -2,0 0,-2z M61,35l2,0 0,2 -2,0 0,-2z M63,35l2,0 0,2 -2,0 0,-2z M1,37l2,0 0,2 -2,0 0,-2z M3,37l2,0 0,2 -2,0 0,-2z M13,37l2,0 0,2 -2,0 0,-2z M15,37l2,0 0,2 -2,0 0,-2z M17,37l2,0 0,2 -2,0 0,-2z M19,37l2,0 0,2 -2,0 0,-2z M23,37l2,0 0,2 -2,0 0,-2z M25,37l2,0 0,2 -2,0 0,-2z M29,37l2,0 0,2 -2,0 0,-2z M31,37l2,0 0,2 -2,0 0,-2z M37,37l2,0 0,2 -2,0 0,-2z M41,37l2,0 0,2 -2,0 0,-2z M47,37l2,0 0,2 -2,0 0,-2z M55,37l2,0 0,2 -2,0 0,-2z M59,37l2,0 0,2 -2,0 0,-2z M63,37l2,0 0,2 -2,0 0,-2z M1,39l2,0 0,2 -2,0 0,-2z M3,39l2,0 0,2 -2,0 0,-2z M5,39l2,0 0,2 -2,0 0,-2z M7,39l2,0 0,2 -2,0 0,-2z M9,39l2,0 0,2 -2,0 0,-2z M17,39l2,0 0,2 -2,0 0,-2z M19,39l2,0 0,2 -2,0 0,-2z M23,39l2,0 0,2 -2,0 0,-2z M25,39l2,0 0,2 -2,0 0,-2z M31,39l2,0 0,2 -2,0 0,-2z M39,39l2,0 0,2 -2,0 0,-2z M41,39l2,0 0,2 -2,0 0,-2z M45,39l2,0 0,2 -2,0 0,-2z M47,39l2,0 0,2 -2,0 0,-2z M49,39l2,0 0,2 -2,0 0,-2z M51,39l2,0 0,2 -2,0 0,-2z M55,39l2,0 0,2 -2,0 0,-2z M63,39l2,0 0,2 -2,0 0,-2z M65,39l2,0 0,2 -2,0 0,-2z M5,41l2,0 0,2 -2,0 0,-2z M7,41l2,0 0,2 -2,0 0,-2z M13,41l2,0 0,2 -2,0 0,-2z M21,41l2,0 0,2 -2,0 0,-2z M29,41l2,0 0,2 -2,0 0,-2z M31,41l2,0 0,2 -2,0 0,-2z M33,41l2,0 0,2 -2,0 0,-2z M45,41l2,0 0,2 -2,0 0,-2z M49,41l2,0 0,2 -2,0 0,-2z M53,41l2,0 0,2 -2,0 0,-2z M57,41l2,0 0,2 -2,0 0,-2z M59,41l2,0 0,2 -2,0 0,-2z M63,41l2,0 0,2 -2,0 0,-2z M1,43l2,0 0,2 -2,0 0,-2z M3,43l2,0 0,2 -2,0 0,-2z M11,43l2,0 0,2 -2,0 0,-2z M15,43l2,0 0,2 -2,0 0,-2z M17,43l2,0 0,2 -2,0 0,-2z M27,43l2,0 0,2 -2,0 0,-2z M29,43l2,0 0,2 -2,0 0,-2z M35,43l2,0 0,2 -2,0 0,-2z M37,43l2,0 0,2 -2,0 0,-2z M39,43l2,0 0,2 -2,0 0,-2z M41,43l2,0 0,2 -2,0 0,-2z M47,43l2,0 0,2 -2,0 0,-2z M51,43l2,0 0,2 -2,0 0,-2z M55,43l2,0 0,2 -2,0 0,-2z M59,43l2,0 0,2 -2,0 0,-2z M63,43l2,0 0,2 -2,0 0,-2z M7,45l2,0 0,2 -2,0 0,-2z M13,45l2,0 0,2 -2,0 0,-2z M15,45l2,0 0,2 -2,0 0,-2z M17,45l2,0 0,2 -2,0 0,-2z M21,45l2,0 0,2 -2,0 0,-2z M25,45l2,0 0,2 -2,0 0,-2z M27,45l2,0 0,2 -2,0 0,-2z M31,45l2,0 0,2 -2,0 0,-2z M37,45l2,0 0,2 -2,0 0,-2z M41,45l2,0 0,2 -2,0 0,-2z M45,45l2,0 0,2 -2,0 0,-2z M47,45l2,0 0,2 -2,0 0,-2z M51,45l2,0 0,2 -2,0 0,-2z M57,45l2,0 0,2 -2,0 0,-2z M59,45l2,0 0,2 -2,0 0,-2z M63,45l2,0 0,2 -2,0 0,-2z M7,47l2,0 0,2 -2,0 0,-2z M9,47l2,0 0,2 -2,0 0,-2z M11,47l2,0 0,2 -2,0 0,-2z M23,47l2,0 0,2 -2,0 0,-2z M27,47l2,0 0,2 -2,0 0,-2z M29,47l2,0 0,2 -2,0 0,-2z M31,47l2,0 0,2 -2,0 0,-2z M33,47l2,0 0,2 -2,0 0,-2z M35,47l2,0 0,2 -2,0 0,-2z M43,47l2,0 0,2 -2,0 0,-2z M47,47l2,0 0,2 -2,0 0,-2z M51,47l2,0 0,2 -2,0 0,-2z M53,47l2,0 0,2 -2,0 0,-2z M57,47l2,0 0,2 -2,0 0,-2z M65,47l2,0 0,2 -2,0 0,-2z M1,49l2,0 0,2 -2,0 0,-2z M3,49l2,0 0,2 -2,0 0,-2z M5,49l2,0 0,2 -2,0 0,-2z M7,49l2,0 0,2 -2,0 0,-2z M13,49l2,0 0,2 -2,0 0,-2z M15,49l2,0 0,2 -2,0 0,-2z M19,49l2,0 0,2 -2,0 0,-2z M21,49l2,0 0,2 -2,0 0,-2z M29,49l2,0 0,2 -2,0 0,-2z M35,49l2,0 0,2 -2,0 0,-2z M39,49l2,0 0,2 -2,0 0,-2z M41,49l2,0 0,2 -2,0 0,-2z M43,49l2,0 0,2 -2,0 0,-2z M45,49l2,0 0,2 -2,0 0,-2z M47,49l2,0 0,2 -2,0 0,-2z M49,49l2,0 0,2 -2,0 0,-2z M51,49l2,0 0,2 -2,0 0,-2z M53,49l2,0 0,2 -2,0 0,-2z M55,49l2,0 0,2 -2,0 0,-2z M57,49l2,0 0,2 -2,0 0,-2z M17,51l2,0 0,2 -2,0 0,-2z M19,51l2,0 0,2 -2,0 0,-2z M21,51l2,0 0,2 -2,0 0,-2z M29,51l2,0 0,2 -2,0 0,-2z M31,51l2,0 0,2 -2,0 0,-2z M37,51l2,0 0,2 -2,0 0,-2z M41,51l2,0 0,2 -2,0 0,-2z M47,51l2,0 0,2 -2,0 0,-2z M49,51l2,0 0,2 -2,0 0,-2z M57,51l2,0 0,2 -2,0 0,-2z M61,51l2,0 0,2 -2,0 0,-2z M63,51l2,0 0,2 -2,0 0,-2z M1,53l2,0 0,2 -2,0 0,-2z M3,53l2,0 0,2 -2,0 0,-2z M5,53l2,0 0,2 -2,0 0,-2z M7,53l2,0 0,2 -2,0 0,-2z M9,53l2,0 0,2 -2,0 0,-2z M11,53l2,0 0,2 -2,0 0,-2z M13,53l2,0 0,2 -2,0 0,-2z M17,53l2,0 0,2 -2,0 0,-2z M25,53l2,0 0,2 -2,0 0,-2z M31,53l2,0 0,2 -2,0 0,-2z M35,53l2,0 0,2 -2,0 0,-2z M41,53l2,0 0,2 -2,0 0,-2z M43,53l2,0 0,2 -2,0 0,-2z M45,53l2,0 0,2 -2,0 0,-2z M49,53l2,0 0,2 -2,0 0,-2z M53,53l2,0 0,2 -2,0 0,-2z M57,53l2,0 0,2 -2,0 0,-2z M59,53l2,0 0,2 -2,0 0,-2z M63,53l2,0 0,2 -2,0 0,-2z M1,55l2,0 0,2 -2,0 0,-2z M13,55l2,0 0,2 -2,0 0,-2z M21,55l2,0 0,2 -2,0 0,-2z M25,55l2,0 0,2 -2,0 0,-2z M27,55l2,0 0,2 -2,0 0,-2z M35,55l2,0 0,2 -2,0 0,-2z M37,55l2,0 0,2 -2,0 0,-2z M41,55l2,0 0,2 -2,0 0,-2z M43,55l2,0 0,2 -2,0 0,-2z M49,55l2,0 0,2 -2,0 0,-2z M57,55l2,0 0,2 -2,0 0,-2z M63,55l2,0 0,2 -2,0 0,-2z M65,55l2,0 0,2 -2,0 0,-2z M1,57l2,0 0,2 -2,0 0,-2z M5,57l2,0 0,2 -2,0 0,-2z M7,57l2,0 0,2 -2,0 0,-2z M9,57l2,0 0,2 -2,0 0,-2z M13,57l2,0 0,2 -2,0 0,-2z M17,57l2,0 0,2 -2,0 0,-2z M25,57l2,0 0,2 -2,0 0,-2z M37,57l2,0 0,2 -2,0 0,-2z M41,57l2,0 0,2 -2,0 0,-2z M49,57l2,0 0,2 -2,0 0,-2z M51,57l2,0 0,2 -2,0 0,-2z M53,57l2,0 0,2 -2,0 0,-2z M55,57l2,0 0,2 -2,0 0,-2z M57,57l2,0 0,2 -2,0 0,-2z M59,57l2,0 0,2 -2,0 0,-2z M63,57l2,0 0,2 -2,0 0,-2z M65,57l2,0 0,2 -2,0 0,-2z M1,59l2,0 0,2 -2,0 0,-2z M5,59l2,0 0,2 -2,0 0,-2z M7,59l2,0 0,2 -2,0 0,-2z M9,59l2,0 0,2 -2,0 0,-2z M13,59l2,0 0,2 -2,0 0,-2z M21,59l2,0 0,2 -2,0 0,-2z M23,59l2,0 0,2 -2,0 0,-2z M25,59l2,0 0,2 -2,0 0,-2z M29,59l2,0 0,2 -2,0 0,-2z M33,59l2,0 0,2 -2,0 0,-2z M35,59l2,0 0,2 -2,0 0,-2z M39,59l2,0 0,2 -2,0 0,-2z M43,59l2,0 0,2 -2,0 0,-2z M45,59l2,0 0,2 -2,0 0,-2z M47,59l2,0 0,2 -2,0 0,-2z M49,59l2,0 0,2 -2,0 0,-2z M53,59l2,0 0,2 -2,0 0,-2z M55,59l2,0 0,2 -2,0 0,-2z M57,59l2,0 0,2 -2,0 0,-2z M59,59l2,0 0,2 -2,0 0,-2z M61,59l2,0 0,2 -2,0 0,-2z M63,59l2,0 0,2 -2,0 0,-2z M1,61l2,0 0,2 -2,0 0,-2z M5,61l2,0 0,2 -2,0 0,-2z M7,61l2,0 0,2 -2,0 0,-2z M9,61l2,0 0,2 -2,0 0,-2z M13,61l2,0 0,2 -2,0 0,-2z M19,61l2,0 0,2 -2,0 0,-2z M21,61l2,0 0,2 -2,0 0,-2z M23,61l2,0 0,2 -2,0 0,-2z M27,61l2,0 0,2 -2,0 0,-2z M33,61l2,0 0,2 -2,0 0,-2z M37,61l2,0 0,2 -2,0 0,-2z M39,61l2,0 0,2 -2,0 0,-2z M47,61l2,0 0,2 -2,0 0,-2z M49,61l2,0 0,2 -2,0 0,-2z M53,61l2,0 0,2 -2,0 0,-2z M55,61l2,0 0,2 -2,0 0,-2z M57,61l2,0 0,2 -2,0 0,-2z M59,61l2,0 0,2 -2,0 0,-2z M61,61l2,0 0,2 -2,0 0,-2z M1,63l2,0 0,2 -2,0 0,-2z M13,63l2,0 0,2 -2,0 0,-2z M19,63l2,0 0,2 -2,0 0,-2z M21,63l2,0 0,2 -2,0 0,-2z M23,63l2,0 0,2 -2,0 0,-2z M27,63l2,0 0,2 -2,0 0,-2z M29,63l2,0 0,2 -2,0 0,-2z M35,63l2,0 0,2 -2,0 0,-2z M37,63l2,0 0,2 -2,0 0,-2z M39,63l2,0 0,2 -2,0 0,-2z M41,63l2,0 0,2 -2,0 0,-2z M43,63l2,0 0,2 -2,0 0,-2z M47,63l2,0 0,2 -2,0 0,-2z M49,63l2,0 0,2 -2,0 0,-2z M51,63l2,0 0,2 -2,0 0,-2z M53,63l2,0 0,2 -2,0 0,-2z M1,65l2,0 0,2 -2,0 0,-2z M3,65l2,0 0,2 -2,0 0,-2z M5,65l2,0 0,2 -2,0 0,-2z M7,65l2,0 0,2 -2,0 0,-2z M9,65l2,0 0,2 -2,0 0,-2z M11,65l2,0 0,2 -2,0 0,-2z M13,65l2,0 0,2 -2,0 0,-2z M17,65l2,0 0,2 -2,0 0,-2z M19,65l2,0 0,2 -2,0 0,-2z M23,65l2,0 0,2 -2,0 0,-2z M25,65l2,0 0,2 -2,0 0,-2z M27,65l2,0 0,2 -2,0 0,-2z M29,65l2,0 0,2 -2,0 0,-2z M31,65l2,0 0,2 -2,0 0,-2z M33,65l2,0 0,2 -2,0 0,-2z M35,65l2,0 0,2 -2,0 0,-2z M41,65l2,0 0,2 -2,0 0,-2z M43,65l2,0 0,2 -2,0 0,-2z M45,65l2,0 0,2 -2,0 0,-2z M47,65l2,0 0,2 -2,0 0,-2z M49,65l2,0 0,2 -2,0 0,-2z M51,65l2,0 0,2 -2,0 0,-2z M53,65l2,0 0,2 -2,0 0,-2z M59,65l2,0 0,2 -2,0 0,-2z M65,65l2,0 0,2 -2,0 0,-2z " stroke="transparent" fill="#1a1a1a"></path></svg>