<svg shape-rendering="crispEdges" version="1.1" xmlns="http://www.w3.org/2000/svg" viewBox="0 0 60 60" preserveAspectRatio="xMinYMin meet"><rect width="100%" height="100%" fill="white" cx="0" cy="0"></rect><path d="M1,1l2,0 0,2 -2,0 0,-2z M3,1l2,0 0,2 -2,0 0,-2z M5,1l2,0 0,2 -2,0 0,-2z M7,1l2,0 0,2 -2,0 0,-2z M9,1l2,0 0,2 -2,0 0,-2z M11,1l2,0 0,2 -2,0 0,-2z M13,1l2,0 0,2 -2,0 0,-2z M17,1l2,0 0,2 -2,0 0,-2z M19,1l2,0 0,2 -2,0 0,-2z M21,1l2,0 0,2 -2,0 0,-2z M23,1l2,0 0,2 -2,0 0,-2z M25,1l2,0 0,2 -2,0 0,-2z M27,1l2,0 0,2 -2,0 0,-2z M31,1l2,0 0,2 -2,0 0,-2z M41,1l2,0 0,2 -2,0 0,-2z M45,1l2,0 0,2 -2,0 0,-2z M47,1l2,0 0,2 -2,0 0,-2z M49,1l2,0 0,2 -2,0 0,-2z M51,1l2,0 0,2 -2,0 0,-2z M53,1l2,0 0,2 -2,0 0,-2z M55,1l2,0 0,2 -2,0 0,-2z M57,1l2,0 0,2 -2,0 0,-2z M1,3l2,0 0,2 -2,0 0,-2z M13,3l2,0 0,2 -2,0 0,-2z M19,3l2,0 0,2 -2,0 0,-2z M21,3l2,0 0,2 -2,0 0,-2z M23,3l2,0 0,2 -2,0 0,-2z M25,3l2,0 0,2 -2,0 0,-2z M29,3l2,0 0,2 -2,0 0,-2z M33,3l2,0 0,2 -2,0 0,-2z M39,3l2,0 0,2 -2,0 0,-2z M41,3l2,0 0,2 -2,0 0,-2z M45,3l2,0 0,2 -2,0 0,-2z M57,3l2,0 0,2 -2,0 0,-2z M1,5l2,0 0,2 -2,0 0,-2z M5,5l2,0 0,2 -2,0 0,-2z M7,5l2,0 0,2 -2,0 0,-2z M9,5l2,0 0,2 -2,0 0,-2z M13,5l2,0 0,2 -2,0 0,-2z M33,5l2,0 0,2 -2,0 0,-2z M35,5l2,0 0,2 -2,0 0,-2z M37,5l2,0 0,2 -2,0 0,-2z M41,5l2,0 0,2 -2,0 0,-2z M45,5l2,0 0,2 -2,0 0,-2z M49,5l2,0 0,2 -2,0 0,-2z M51,5l2,0 0,2 -2,0 0,-2z M53,5l2,0 0,2 -2,0 0,-2z M57,5l2,0 0,2 -2,0 0,-2z M1,7l2,0 0,2 -2,0 0,-2z M5,7l2,0 0,2 -2,0 0,-2z M7,7l2,0 0,2 -2,0 0,-2z M9,7l2,0 0,2 -2,0 0,-2z M13,7l2,0 0,2 -2,0 0,-2z M17,7l2,0 0,2 -2,0 0,-2z M19,7l2,0 0,2 -2,0 0,-2z M25,7l2,0 0,2 -2,0 0,-2z M27,7l2,0 0,2 -2,0 0,-2z M31,7l2,0 0,2 -2,0 0,-2z M41,7l2,0 0,2 -2,0 0,-2z M45,7l2,0 0,2 -2,0 0,-2z M49,7l2,0 0,2 -2,0 0,-2z M51,7l2,0 0,2 -2,0 0,-2z M53,7l2,0 0,2 -2,0 0,-2z M57,7l2,0 0,2 -2,0 0,-2z M1,9l2,0 0,2 -2,0 0,-2z M5,9l2,0 0,2 -2,0 0,-2z M7,9l2,0 0,2 -2,0 0,-2z M9,9l2,0 0,2 -2,0 0,-2z M13,9l2,0 0,2 -2,0 0,-2z M17,9l2,0 0,2 -2,0 0,-2z M19,9l2,0 0,2 -2,0 0,-2z M21,9l2,0 0,2 -2,0 0,-2z M25,9l2,0 0,2 -2,0 0,-2z M27,9l2,0 0,2 -2,0 0,-2z M31,9l2,0 0,2 -2,0 0,-2z M35,9l2,0 0,2 -2,0 0,-2z M37,9l2,0 0,2 -2,0 0,-2z M41,9l2,0 0,2 -2,0 0,-2z M45,9l2,0 0,2 -2,0 0,-2z M49,9l2,0 0,2 -2,0 0,-2z M51,9l2,0 0,2 -2,0 0,-2z M53,9l2,0 0,2 -2,0 0,-2z M57,9l2,0 0,2 -2,0 0,-2z M1,11l2,0 0,2 -2,0 0,-2z M13,11l2,0 0,2 -2,0 0,-2z M17,11l2,0 0,2 -2,0 0,-2z M19,11l2,0 0,2 -2,0 0,-2z M29,11l2,0 0,2 -2,0 0,-2z M33,11l2,0 0,2 -2,0 0,-2z M35,11l2,0 0,2 -2,0 0,-2z M39,11l2,0 0,2 -2,0 0,-2z M45,11l2,0 0,2 -2,0 0,-2z M57,11l2,0 0,2 -2,0 0,-2z M1,13l2,0 0,2 -2,0 0,-2z M3,13l2,0 0,2 -2,0 0,-2z M5,13l2,0 0,2 -2,0 0,-2z M7,13l2,0 0,2 -2,0 0,-2z M9,13l2,0 0,2 -2,0 0,-2z M11,13l2,0 0,2 -2,0 0,-2z M13,13l2,0 0,2 -2,0 0,-2z M17,13l2,0 0,2 -2,0 0,-2z M21,13l2,0 0,2 -2,0 0,-2z M25,13l2,0 0,2 -2,0 0,-2z M29,13l2,0 0,2 -2,0 0,-2z M33,13l2,0 0,2 -2,0 0,-2z M37,13l2,0 0,2 -2,0 0,-2z M41,13l2,0 0,2 -2,0 0,-2z M45,13l2,0 0,2 -2,0 0,-2z M47,13l2,0 0,2 -2,0 0,-2z M49,13l2,0 0,2 -2,0 0,-2z M51,13l2,0 0,2 -2,0 0,-2z M53,13l2,0 0,2 -2,0 0,-2z M55,13l2,0 0,2 -2,0 0,-2z M57,13l2,0 0,2 -2,0 0,-2z M17,15l2,0 0,2 -2,0 0,-2z M21,15l2,0 0,2 -2,0 0,-2z M23,15l2,0 0,2 -2,0 0,-2z M25,15l2,0 0,2 -2,0 0,-2z M31,15l2,0 0,2 -2,0 0,-2z M33,15l2,0 0,2 -2,0 0,-2z M35,15l2,0 0,2 -2,0 0,-2z M37,15l2,0 0,2 -2,0 0,-2z M1,17l2,0 0,2 -2,0 0,-2z M9,17l2,0 0,2 -2,0 0,-2z M13,17l2,0 0,2 -2,0 0,-2z M15,17l2,0 0,2 -2,0 0,-2z M17,17l2,0 0,2 -2,0 0,-2z M19,17l2,0 0,2 -2,0 0,-2z M23,17l2,0 0,2 -2,0 0,-2z M29,17l2,0 0,2 -2,0 0,-2z M33,17l2,0 0,2 -2,0 0,-2z M35,17l2,0 0,2 -2,0 0,-2z M37,17l2,0 0,2 -2,0 0,-2z M39,17l2,0 0,2 -2,0 0,-2z M43,17l2,0 0,2 -2,0 0,-2z M45,17l2,0 0,2 -2,0 0,-2z M47,17l2,0 0,2 -2,0 0,-2z M49,17l2,0 0,2 -2,0 0,-2z M51,17l2,0 0,2 -2,0 0,-2z M57,17l2,0 0,2 -2,0 0,-2z M3,19l2,0 0,2 -2,0 0,-2z M5,19l2,0 0,2 -2,0 0,-2z M9,19l2,0 0,2 -2,0 0,-2z M11,19l2,0 0,2 -2,0 0,-2z M19,19l2,0 0,2 -2,0 0,-2z M27,19l2,0 0,2 -2,0 0,-2z M31,19l2,0 0,2 -2,0 0,-2z M41,19l2,0 0,2 -2,0 0,-2z M45,19l2,0 0,2 -2,0 0,-2z M47,19l2,0 0,2 -2,0 0,-2z M49,19l2,0 0,2 -2,0 0,-2z M51,19l2,0 0,2 -2,0 0,-2z M53,19l2,0 0,2 -2,0 0,-2z M55,19l2,0 0,2 -2,0 0,-2z M57,19l2,0 0,2 -2,0 0,-2z M1,21l2,0 0,2 -2,0 0,-2z M5,21l2,0 0,2 -2,0 0,-2z M13,21l2,0 0,2 -2,0 0,-2z M19,21l2,0 0,2 -2,0 0,-2z M23,21l2,0 0,2 -2,0 0,-2z M27,21l2,0 0,2 -2,0 0,-2z M29,21l2,0 0,2 -2,0 0,-2z M31,21l2,0 0,2 -2,0 0,-2z M33,21l2,0 0,2 -2,0 0,-2z M41,21l2,0 0,2 -2,0 0,-2z M47,21l2,0 0,2 -2,0 0,-2z M49,21l2,0 0,2 -2,0 0,-2z M57,21l2,0 0,2 -2,0 0,-2z M1,23l2,0 0,2 -2,0 0,-2z M3,23l2,0 0,2 -2,0 0,-2z M7,23l2,0 0,2 -2,0 0,-2z M9,23l2,0 0,2 -2,0 0,-2z M11,23l2,0 0,2 -2,0 0,-2z M19,23l2,0 0,2 -2,0 0,-2z M25,23l2,0 0,2 -2,0 0,-2z M31,23l2,0 0,2 -2,0 0,-2z M33,23l2,0 0,2 -2,0 0,-2z M35,23l2,0 0,2 -2,0 0,-2z M37,23l2,0 0,2 -2,0 0,-2z M49,23l2,0 0,2 -2,0 0,-2z M51,23l2,0 0,2 -2,0 0,-2z M55,23l2,0 0,2 -2,0 0,-2z M57,23l2,0 0,2 -2,0 0,-2z M1,25l2,0 0,2 -2,0 0,-2z M7,25l2,0 0,2 -2,0 0,-2z M9,25l2,0 0,2 -2,0 0,-2z M11,25l2,0 0,2 -2,0 0,-2z M13,25l2,0 0,2 -2,0 0,-2z M15,25l2,0 0,2 -2,0 0,-2z M19,25l2,0 0,2 -2,0 0,-2z M27,25l2,0 0,2 -2,0 0,-2z M29,25l2,0 0,2 -2,0 0,-2z M31,25l2,0 0,2 -2,0 0,-2z M33,25l2,0 0,2 -2,0 0,-2z M35,25l2,0 0,2 -2,0 0,-2z M37,25l2,0 0,2 -2,0 0,-2z M39,25l2,0 0,2 -2,0 0,-2z M43,25l2,0 0,2 -2,0 0,-2z M55,25l2,0 0,2 -2,0 0,-2z M7,27l2,0 0,2 -2,0 0,-2z M11,27l2,0 0,2 -2,0 0,-2z M15,27l2,0 0,2 -2,0 0,-2z M17,27l2,0 0,2 -2,0 0,-2z M23,27l2,0 0,2 -2,0 0,-2z M29,27l2,0 0,2 -2,0 0,-2z M31,27l2,0 0,2 -2,0 0,-2z M41,27l2,0 0,2 -2,0 0,-2z M43,27l2,0 0,2 -2,0 0,-2z M45,27l2,0 0,2 -2,0 0,-2z M49,27l2,0 0,2 -2,0 0,-2z M51,27l2,0 0,2 -2,0 0,-2z M53,27l2,0 0,2 -2,0 0,-2z M55,27l2,0 0,2 -2,0 0,-2z M57,27l2,0 0,2 -2,0 0,-2z M11,29l2,0 0,2 -2,0 0,-2z M13,29l2,0 0,2 -2,0 0,-2z M21,29l2,0 0,2 -2,0 0,-2z M27,29l2,0 0,2 -2,0 0,-2z M29,29l2,0 0,2 -2,0 0,-2z M31,29l2,0 0,2 -2,0 0,-2z M37,29l2,0 0,2 -2,0 0,-2z M43,29l2,0 0,2 -2,0 0,-2z M45,29l2,0 0,2 -2,0 0,-2z M51,29l2,0 0,2 -2,0 0,-2z M53,29l2,0 0,2 -2,0 0,-2z M57,29l2,0 0,2 -2,0 0,-2z M1,31l2,0 0,2 -2,0 0,-2z M7,31l2,0 0,2 -2,0 0,-2z M17,31l2,0 0,2 -2,0 0,-2z M25,31l2,0 0,2 -2,0 0,-2z M27,31l2,0 0,2 -2,0 0,-2z M33,31l2,0 0,2 -2,0 0,-2z M35,31l2,0 0,2 -2,0 0,-2z M37,31l2,0 0,2 -2,0 0,-2z M39,31l2,0 0,2 -2,0 0,-2z M41,31l2,0 0,2 -2,0 0,-2z M43,31l2,0 0,2 -2,0 0,-2z M47,31l2,0 0,2 -2,0 0,-2z M49,31l2,0 0,2 -2,0 0,-2z M55,31l2,0 0,2 -2,0 0,-2z M57,31l2,0 0,2 -2,0 0,-2z M1,33l2,0 0,2 -2,0 0,-2z M3,33l2,0 0,2 -2,0 0,-2z M11,33l2,0 0,2 -2,0 0,-2z M13,33l2,0 0,2 -2,0 0,-2z M21,33l2,0 0,2 -2,0 0,-2z M23,33l2,0 0,2 -2,0 0,-2z M27,33l2,0 0,2 -2,0 0,-2z M33,33l2,0 0,2 -2,0 0,-2z M35,33l2,0 0,2 -2,0 0,-2z M37,33l2,0 0,2 -2,0 0,-2z M41,33l2,0 0,2 -2,0 0,-2z M43,33l2,0 0,2 -2,0 0,-2z M55,33l2,0 0,2 -2,0 0,-2z M1,35l2,0 0,2 -2,0 0,-2z M5,35l2,0 0,2 -2,0 0,-2z M7,35l2,0 0,2 -2,0 0,-2z M9,35l2,0 0,2 -2,0 0,-2z M19,35l2,0 0,2 -2,0 0,-2z M21,35l2,0 0,2 -2,0 0,-2z M23,35l2,0 0,2 -2,0 0,-2z M25,35l2,0 0,2 -2,0 0,-2z M27,35l2,0 0,2 -2,0 0,-2z M29,35l2,0 0,2 -2,0 0,-2z M31,35l2,0 0,2 -2,0 0,-2z M35,35l2,0 0,2 -2,0 0,-2z M41,35l2,0 0,2 -2,0 0,-2z M45,35l2,0 0,2 -2,0 0,-2z M47,35l2,0 0,2 -2,0 0,-2z M49,35l2,0 0,2 -2,0 0,-2z M51,35l2,0 0,2 -2,0 0,-2z M55,35l2,0 0,2 -2,0 0,-2z M57,35l2,0 0,2 -2,0 0,-2z M9,37l2,0 0,2 -2,0 0,-2z M13,37l2,0 0,2 -2,0 0,-2z M15,37l2,0 0,2 -2,0 0,-2z M17,37l2,0 0,2 -2,0 0,-2z M19,37l2,0 0,2 -2,0 0,-2z M21,37l2,0 0,2 -2,0 0,-2z M23,37l2,0 0,2 -2,0 0,-2z M31,37l2,0 0,2 -2,0 0,-2z M33,37l2,0 0,2 -2,0 0,-2z M35,37l2,0 0,2 -2,0 0,-2z M45,37l2,0 0,2 -2,0 0,-2z M49,37l2,0 0,2 -2,0 0,-2z M53,37l2,0 0,2 -2,0 0,-2z M57,37l2,0 0,2 -2,0 0,-2z M5,39l2,0 0,2 -2,0 0,-2z M11,39l2,0 0,2 -2,0 0,-2z M15,39l2,0 0,2 -2,0 0,-2z M19,39l2,0 0,2 -2,0 0,-2z M23,39l2,0 0,2 -2,0 0,-2z M25,39l2,0 0,2 -2,0 0,-2z M29,39l2,0 0,2 -2,0 0,-2z M35,39l2,0 0,2 -2,0 0,-2z M49,39l2,0 0,2 -2,0 0,-2z M55,39l2,0 0,2 -2,0 0,-2z M57,39l2,0 0,2 -2,0 0,-2z M1,41l2,0 0,2 -2,0 0,-2z M3,41l2,0 0,2 -2,0 0,-2z M9,41l2,0 0,2 -2,0 0,-2z M11,41l2,0 0,2 -2,0 0,-2z M13,41l2,0 0,2 -2,0 0,-2z M17,41l2,0 0,2 -2,0 0,-2z M19,41l2,0 0,2 -2,0 0,-2z M21,41l2,0 0,2 -2,0 0,-2z M23,41l2,0 0,2 -2,0 0,-2z M25,41l2,0 0,2 -2,0 0,-2z M27,41l2,0 0,2 -2,0 0,-2z M29,41l2,0 0,2 -2,0 0,-2z M31,41l2,0 0,2 -2,0 0,-2z M35,41l2,0 0,2 -2,0 0,-2z M37,41l2,0 0,2 -2,0 0,-2z M39,41l2,0 0,2 -2,0 0,-2z M41,41l2,0 0,2 -2,0 0,-2z M43,41l2,0 0,2 -2,0 0,-2z M45,41l2,0 0,2 -2,0 0,-2z M47,41l2,0 0,2 -2,0 0,-2z M49,41l2,0 0,2 -2,0 0,-2z M51,41l2,0 0,2 -2,0 0,-2z M57,41l2,0 0,2 -2,0 0,-2z M17,43l2,0 0,2 -2,0 0,-2z M19,43l2,0 0,2 -2,0 0,-2z M21,43l2,0 0,2 -2,0 0,-2z M25,43l2,0 0,2 -2,0 0,-2z M31,43l2,0 0,2 -2,0 0,-2z M41,43l2,0 0,2 -2,0 0,-2z M49,43l2,0 0,2 -2,0 0,-2z M57,43l2,0 0,2 -2,0 0,-2z M1,45l2,0 0,2 -2,0 0,-2z M3,45l2,0 0,2 -2,0 0,-2z M5,45l2,0 0,2 -2,0 0,-2z M7,45l2,0 0,2 -2,0 0,-2z M9,45l2,0 0,2 -2,0 0,-2z M11,45l2,0 0,2 -2,0 0,-2z M13,45l2,0 0,2 -2,0 0,-2z M17,45l2,0 0,2 -2,0 0,-2z M21,45l2,0 0,2 -2,0 0,-2z M23,45l2,0 0,2 -2,0 0,-2z M25,45l2,0 0,2 -2,0 0,-2z M27,45l2,0 0,2 -2,0 0,-2z M29,45l2,0 0,2 -2,0 0,-2z M31,45l2,0 0,2 -2,0 0,-2z M37,45l2,0 0,2 -2,0 0,-2z M39,45l2,0 0,2 -2,0 0,-2z M41,45l2,0 0,2 -2,0 0,-2z M45,45l2,0 0,2 -2,0 0,-2z M49,45l2,0 0,2 -2,0 0,-2z M51,45l2,0 0,2 -2,0 0,-2z M53,45l2,0 0,2 -2,0 0,-2z M57,45l2,0 0,2 -2,0 0,-2z M1,47l2,0 0,2 -2,0 0,-2z M13,47l2,0 0,2 -2,0 0,-2z M19,47l2,0 0,2 -2,0 0,-2z M27,47l2,0 0,2 -2,0 0,-2z M31,47l2,0 0,2 -2,0 0,-2z M35,47l2,0 0,2 -2,0 0,-2z M41,47l2,0 0,2 -2,0 0,-2z M49,47l2,0 0,2 -2,0 0,-2z M1,49l2,0 0,2 -2,0 0,-2z M5,49l2,0 0,2 -2,0 0,-2z M7,49l2,0 0,2 -2,0 0,-2z M9,49l2,0 0,2 -2,0 0,-2z M13,49l2,0 0,2 -2,0 0,-2z M17,49l2,0 0,2 -2,0 0,-2z M21,49l2,0 0,2 -2,0 0,-2z M23,49l2,0 0,2 -2,0 0,-2z M27,49l2,0 0,2 -2,0 0,-2z M33,49l2,0 0,2 -2,0 0,-2z M35,49l2,0 0,2 -2,0 0,-2z M37,49l2,0 0,2 -2,0 0,-2z M39,49l2,0 0,2 -2,0 0,-2z M41,49l2,0 0,2 -2,0 0,-2z M43,49l2,0 0,2 -2,0 0,-2z M45,49l2,0 0,2 -2,0 0,-2z M47,49l2,0 0,2 -2,0 0,-2z M49,49l2,0 0,2 -2,0 0,-2z M51,49l2,0 0,2 -2,0 0,-2z M55,49l2,0 0,2 -2,0 0,-2z M1,51l2,0 0,2 -2,0 0,-2z M5,51l2,0 0,2 -2,0 0,-2z M7,51l2,0 0,2 -2,0 0,-2z M9,51l2,0 0,2 -2,0 0,-2z M13,51l2,0 0,2 -2,0 0,-2z M21,51l2,0 0,2 -2,0 0,-2z M27,51l2,0 0,2 -2,0 0,-2z M29,51l2,0 0,2 -2,0 0,-2z M31,51l2,0 0,2 -2,0 0,-2z M41,51l2,0 0,2 -2,0 0,-2z M57,51l2,0 0,2 -2,0 0,-2z M1,53l2,0 0,2 -2,0 0,-2z M5,53l2,0 0,2 -2,0 0,-2z M7,53l2,0 0,2 -2,0 0,-2z M9,53l2,0 0,2 -2,0 0,-2z M13,53l2,0 0,2 -2,0 0,-2z M19,53l2,0 0,2 -2,0 0,-2z M23,53l2,0 0,2 -2,0 0,-2z M29,53l2,0 0,2 -2,0 0,-2z M31,53l2,0 0,2 -2,0 0,-2z M43,53l2,0 0,2 -2,0 0,-2z M51,53l2,0 0,2 -2,0 0,-2z M53,53l2,0 0,2 -2,0 0,-2z M55,53l2,0 0,2 -2,0 0,-2z M57,53l2,0 0,2 -2,0 0,-2z M1,55l2,0 0,2 -2,0 0,-2z M13,55l2,0 0,2 -2,0 0,-2z M19,55l2,0 0,2 -2,0 0,-2z M25,55l2,0 0,2 -2,0 0,-2z M27,55l2,0 0,2 -2,0 0,-2z M29,55l2,0 0,2 -2,0 0,-2z M33,55l2,0 0,2 -2,0 0,-2z M35,55l2,0 0,2 -2,0 0,-2z M37,55l2,0 0,2 -2,0 0,-2z M39,55l2,0 0,2 -2,0 0,-2z M41,55l2,0 0,2 -2,0 0,-2z M47,55l2,0 0,2 -2,0 0,-2z M51,55l2,0 0,2 -2,0 0,-2z M55,55l2,0 0,2 -2,0 0,-2z M57,55l2,0 0,2 -2,0 0,-2z M1,57l2,0 0,2 -2,0 0,-2z M3,57l2,0 0,2 -2,0 0,-2z M5,57l2,0 0,2 -2,0 0,-2z M7,57l2,0 0,2 -2,0 0,-2z M9,57l2,0 0,2 -2,0 0,-2z M11,57l2,0 0,2 -2,0 0,-2z M13,57l2,0 0,2 -2,0 0,-2z M17,57l2,0 0,2 -2,0 0,-2z M23,57l2,0 0,2 -2,0 0,-2z M25,57l2,0 0,2 -2,0 0,-2z M29,57l2,0 0,2 -2,0 0,-2z M33,57l2,0 0,2 -2,0 0,-2z M35,57l2,0 0,2 -2,0 0,-2z M37,57l2,0 0,2 -2,0 0,-2z M39,57l2,0 0,2 -2,0 0,-2z M41,57l2,0 0,2 -2,0 0,-2z M43,57l2,0 0,2 -2,0 0,-2z M45,57l2,0 0,2 -2,0 0,-2z M47,57l2,0 0,2 -2,0 0,-2z M49,57l2,0 0,2 -2,0 0,-2z M51,57l2,0 0,2 -2,0 0,-2z M55,57l2,0 0,2 -2,0 0,-2z " stroke="transparent" fill="#1a1a1a"></path></svg>