<svg shape-rendering="crispEdges" version="1.1" xmlns="http://www.w3.org/2000/svg" viewBox="0 0 68 68" preserveAspectRatio="xMinYMin meet"><rect width="100%" height="100%" fill="white" cx="0" cy="0"></rect><path d="M1,1l2,0 0,2 -2,0 0,-2z M3,1l2,0 0,2 -2,0 0,-2z M5,1l2,0 0,2 -2,0 0,-2z M7,1l2,0 0,2 -2,0 0,-2z M9,1l2,0 0,2 -2,0 0,-2z M11,1l2,0 0,2 -2,0 0,-2z M13,1l2,0 0,2 -2,0 0,-2z M17,1l2,0 0,2 -2,0 0,-2z M23,1l2,0 0,2 -2,0 0,-2z M37,1l2,0 0,2 -2,0 0,-2z M39,1l2,0 0,2 -2,0 0,-2z M41,1l2,0 0,2 -2,0 0,-2z M43,1l2,0 0,2 -2,0 0,-2z M47,1l2,0 0,2 -2,0 0,-2z M53,1l2,0 0,2 -2,0 0,-2z M55,1l2,0 0,2 -2,0 0,-2z M57,1l2,0 0,2 -2,0 0,-2z M59,1l2,0 0,2 -2,0 0,-2z M61,1l2,0 0,2 -2,0 0,-2z M63,1l2,0 0,2 -2,0 0,-2z M65,1l2,0 0,2 -2,0 0,-2z M1,3l2,0 0,2 -2,0 0,-2z M13,3l2,0 0,2 -2,0 0,-2z M17,3l2,0 0,2 -2,0 0,-2z M19,3l2,0 0,2 -2,0 0,-2z M25,3l2,0 0,2 -2,0 0,-2z M29,3l2,0 0,2 -2,0 0,-2z M33,3l2,0 0,2 -2,0 0,-2z M35,3l2,0 0,2 -2,0 0,-2z M45,3l2,0 0,2 -2,0 0,-2z M47,3l2,0 0,2 -2,0 0,-2z M49,3l2,0 0,2 -2,0 0,-2z M53,3l2,0 0,2 -2,0 0,-2z M65,3l2,0 0,2 -2,0 0,-2z M1,5l2,0 0,2 -2,0 0,-2z M5,5l2,0 0,2 -2,0 0,-2z M7,5l2,0 0,2 -2,0 0,-2z M9,5l2,0 0,2 -2,0 0,-2z M13,5l2,0 0,2 -2,0 0,-2z M19,5l2,0 0,2 -2,0 0,-2z M21,5l2,0 0,2 -2,0 0,-2z M23,5l2,0 0,2 -2,0 0,-2z M27,5l2,0 0,2 -2,0 0,-2z M29,5l2,0 0,2 -2,0 0,-2z M31,5l2,0 0,2 -2,0 0,-2z M37,5l2,0 0,2 -2,0 0,-2z M49,5l2,0 0,2 -2,0 0,-2z M53,5l2,0 0,2 -2,0 0,-2z M57,5l2,0 0,2 -2,0 0,-2z M59,5l2,0 0,2 -2,0 0,-2z M61,5l2,0 0,2 -2,0 0,-2z M65,5l2,0 0,2 -2,0 0,-2z M1,7l2,0 0,2 -2,0 0,-2z M5,7l2,0 0,2 -2,0 0,-2z M7,7l2,0 0,2 -2,0 0,-2z M9,7l2,0 0,2 -2,0 0,-2z M13,7l2,0 0,2 -2,0 0,-2z M17,7l2,0 0,2 -2,0 0,-2z M23,7l2,0 0,2 -2,0 0,-2z M25,7l2,0 0,2 -2,0 0,-2z M37,7l2,0 0,2 -2,0 0,-2z M45,7l2,0 0,2 -2,0 0,-2z M49,7l2,0 0,2 -2,0 0,-2z M53,7l2,0 0,2 -2,0 0,-2z M57,7l2,0 0,2 -2,0 0,-2z M59,7l2,0 0,2 -2,0 0,-2z M61,7l2,0 0,2 -2,0 0,-2z M65,7l2,0 0,2 -2,0 0,-2z M1,9l2,0 0,2 -2,0 0,-2z M5,9l2,0 0,2 -2,0 0,-2z M7,9l2,0 0,2 -2,0 0,-2z M9,9l2,0 0,2 -2,0 0,-2z M13,9l2,0 0,2 -2,0 0,-2z M19,9l2,0 0,2 -2,0 0,-2z M27,9l2,0 0,2 -2,0 0,-2z M33,9l2,0 0,2 -2,0 0,-2z M37,9l2,0 0,2 -2,0 0,-2z M49,9l2,0 0,2 -2,0 0,-2z M53,9l2,0 0,2 -2,0 0,-2z M57,9l2,0 0,2 -2,0 0,-2z M59,9l2,0 0,2 -2,0 0,-2z M61,9l2,0 0,2 -2,0 0,-2z M65,9l2,0 0,2 -2,0 0,-2z M1,11l2,0 0,2 -2,0 0,-2z M13,11l2,0 0,2 -2,0 0,-2z M21,11l2,0 0,2 -2,0 0,-2z M23,11l2,0 0,2 -2,0 0,-2z M29,11l2,0 0,2 -2,0 0,-2z M31,11l2,0 0,2 -2,0 0,-2z M33,11l2,0 0,2 -2,0 0,-2z M43,11l2,0 0,2 -2,0 0,-2z M45,11l2,0 0,2 -2,0 0,-2z M53,11l2,0 0,2 -2,0 0,-2z M65,11l2,0 0,2 -2,0 0,-2z M1,13l2,0 0,2 -2,0 0,-2z M3,13l2,0 0,2 -2,0 0,-2z M5,13l2,0 0,2 -2,0 0,-2z M7,13l2,0 0,2 -2,0 0,-2z M9,13l2,0 0,2 -2,0 0,-2z M11,13l2,0 0,2 -2,0 0,-2z M13,13l2,0 0,2 -2,0 0,-2z M17,13l2,0 0,2 -2,0 0,-2z M21,13l2,0 0,2 -2,0 0,-2z M25,13l2,0 0,2 -2,0 0,-2z M29,13l2,0 0,2 -2,0 0,-2z M33,13l2,0 0,2 -2,0 0,-2z M37,13l2,0 0,2 -2,0 0,-2z M41,13l2,0 0,2 -2,0 0,-2z M45,13l2,0 0,2 -2,0 0,-2z M49,13l2,0 0,2 -2,0 0,-2z M53,13l2,0 0,2 -2,0 0,-2z M55,13l2,0 0,2 -2,0 0,-2z M57,13l2,0 0,2 -2,0 0,-2z M59,13l2,0 0,2 -2,0 0,-2z M61,13l2,0 0,2 -2,0 0,-2z M63,13l2,0 0,2 -2,0 0,-2z M65,13l2,0 0,2 -2,0 0,-2z M17,15l2,0 0,2 -2,0 0,-2z M19,15l2,0 0,2 -2,0 0,-2z M21,15l2,0 0,2 -2,0 0,-2z M23,15l2,0 0,2 -2,0 0,-2z M25,15l2,0 0,2 -2,0 0,-2z M31,15l2,0 0,2 -2,0 0,-2z M33,15l2,0 0,2 -2,0 0,-2z M35,15l2,0 0,2 -2,0 0,-2z M37,15l2,0 0,2 -2,0 0,-2z M39,15l2,0 0,2 -2,0 0,-2z M1,17l2,0 0,2 -2,0 0,-2z M5,17l2,0 0,2 -2,0 0,-2z M7,17l2,0 0,2 -2,0 0,-2z M11,17l2,0 0,2 -2,0 0,-2z M13,17l2,0 0,2 -2,0 0,-2z M15,17l2,0 0,2 -2,0 0,-2z M19,17l2,0 0,2 -2,0 0,-2z M25,17l2,0 0,2 -2,0 0,-2z M29,17l2,0 0,2 -2,0 0,-2z M31,17l2,0 0,2 -2,0 0,-2z M33,17l2,0 0,2 -2,0 0,-2z M35,17l2,0 0,2 -2,0 0,-2z M37,17l2,0 0,2 -2,0 0,-2z M43,17l2,0 0,2 -2,0 0,-2z M45,17l2,0 0,2 -2,0 0,-2z M47,17l2,0 0,2 -2,0 0,-2z M49,17l2,0 0,2 -2,0 0,-2z M53,17l2,0 0,2 -2,0 0,-2z M59,17l2,0 0,2 -2,0 0,-2z M63,17l2,0 0,2 -2,0 0,-2z M65,17l2,0 0,2 -2,0 0,-2z M1,19l2,0 0,2 -2,0 0,-2z M7,19l2,0 0,2 -2,0 0,-2z M11,19l2,0 0,2 -2,0 0,-2z M15,19l2,0 0,2 -2,0 0,-2z M19,19l2,0 0,2 -2,0 0,-2z M23,19l2,0 0,2 -2,0 0,-2z M25,19l2,0 0,2 -2,0 0,-2z M27,19l2,0 0,2 -2,0 0,-2z M29,19l2,0 0,2 -2,0 0,-2z M33,19l2,0 0,2 -2,0 0,-2z M35,19l2,0 0,2 -2,0 0,-2z M37,19l2,0 0,2 -2,0 0,-2z M39,19l2,0 0,2 -2,0 0,-2z M41,19l2,0 0,2 -2,0 0,-2z M47,19l2,0 0,2 -2,0 0,-2z M53,19l2,0 0,2 -2,0 0,-2z M55,19l2,0 0,2 -2,0 0,-2z M59,19l2,0 0,2 -2,0 0,-2z M61,19l2,0 0,2 -2,0 0,-2z M65,19l2,0 0,2 -2,0 0,-2z M1,21l2,0 0,2 -2,0 0,-2z M3,21l2,0 0,2 -2,0 0,-2z M5,21l2,0 0,2 -2,0 0,-2z M9,21l2,0 0,2 -2,0 0,-2z M13,21l2,0 0,2 -2,0 0,-2z M17,21l2,0 0,2 -2,0 0,-2z M21,21l2,0 0,2 -2,0 0,-2z M23,21l2,0 0,2 -2,0 0,-2z M25,21l2,0 0,2 -2,0 0,-2z M27,21l2,0 0,2 -2,0 0,-2z M33,21l2,0 0,2 -2,0 0,-2z M37,21l2,0 0,2 -2,0 0,-2z M43,21l2,0 0,2 -2,0 0,-2z M45,21l2,0 0,2 -2,0 0,-2z M47,21l2,0 0,2 -2,0 0,-2z M51,21l2,0 0,2 -2,0 0,-2z M55,21l2,0 0,2 -2,0 0,-2z M57,21l2,0 0,2 -2,0 0,-2z M59,21l2,0 0,2 -2,0 0,-2z M63,21l2,0 0,2 -2,0 0,-2z M65,21l2,0 0,2 -2,0 0,-2z M3,23l2,0 0,2 -2,0 0,-2z M5,23l2,0 0,2 -2,0 0,-2z M7,23l2,0 0,2 -2,0 0,-2z M9,23l2,0 0,2 -2,0 0,-2z M23,23l2,0 0,2 -2,0 0,-2z M33,23l2,0 0,2 -2,0 0,-2z M35,23l2,0 0,2 -2,0 0,-2z M45,23l2,0 0,2 -2,0 0,-2z M55,23l2,0 0,2 -2,0 0,-2z M59,23l2,0 0,2 -2,0 0,-2z M1,25l2,0 0,2 -2,0 0,-2z M5,25l2,0 0,2 -2,0 0,-2z M9,25l2,0 0,2 -2,0 0,-2z M11,25l2,0 0,2 -2,0 0,-2z M13,25l2,0 0,2 -2,0 0,-2z M15,25l2,0 0,2 -2,0 0,-2z M17,25l2,0 0,2 -2,0 0,-2z M25,25l2,0 0,2 -2,0 0,-2z M29,25l2,0 0,2 -2,0 0,-2z M33,25l2,0 0,2 -2,0 0,-2z M47,25l2,0 0,2 -2,0 0,-2z M51,25l2,0 0,2 -2,0 0,-2z M55,25l2,0 0,2 -2,0 0,-2z M57,25l2,0 0,2 -2,0 0,-2z M59,25l2,0 0,2 -2,0 0,-2z M65,25l2,0 0,2 -2,0 0,-2z M1,27l2,0 0,2 -2,0 0,-2z M3,27l2,0 0,2 -2,0 0,-2z M5,27l2,0 0,2 -2,0 0,-2z M9,27l2,0 0,2 -2,0 0,-2z M11,27l2,0 0,2 -2,0 0,-2z M17,27l2,0 0,2 -2,0 0,-2z M21,27l2,0 0,2 -2,0 0,-2z M27,27l2,0 0,2 -2,0 0,-2z M29,27l2,0 0,2 -2,0 0,-2z M41,27l2,0 0,2 -2,0 0,-2z M43,27l2,0 0,2 -2,0 0,-2z M49,27l2,0 0,2 -2,0 0,-2z M61,27l2,0 0,2 -2,0 0,-2z M63,27l2,0 0,2 -2,0 0,-2z M1,29l2,0 0,2 -2,0 0,-2z M7,29l2,0 0,2 -2,0 0,-2z M9,29l2,0 0,2 -2,0 0,-2z M11,29l2,0 0,2 -2,0 0,-2z M13,29l2,0 0,2 -2,0 0,-2z M17,29l2,0 0,2 -2,0 0,-2z M21,29l2,0 0,2 -2,0 0,-2z M29,29l2,0 0,2 -2,0 0,-2z M35,29l2,0 0,2 -2,0 0,-2z M39,29l2,0 0,2 -2,0 0,-2z M41,29l2,0 0,2 -2,0 0,-2z M43,29l2,0 0,2 -2,0 0,-2z M49,29l2,0 0,2 -2,0 0,-2z M53,29l2,0 0,2 -2,0 0,-2z M57,29l2,0 0,2 -2,0 0,-2z M1,31l2,0 0,2 -2,0 0,-2z M7,31l2,0 0,2 -2,0 0,-2z M9,31l2,0 0,2 -2,0 0,-2z M11,31l2,0 0,2 -2,0 0,-2z M15,31l2,0 0,2 -2,0 0,-2z M17,31l2,0 0,2 -2,0 0,-2z M19,31l2,0 0,2 -2,0 0,-2z M21,31l2,0 0,2 -2,0 0,-2z M23,31l2,0 0,2 -2,0 0,-2z M27,31l2,0 0,2 -2,0 0,-2z M29,31l2,0 0,2 -2,0 0,-2z M31,31l2,0 0,2 -2,0 0,-2z M43,31l2,0 0,2 -2,0 0,-2z M49,31l2,0 0,2 -2,0 0,-2z M51,31l2,0 0,2 -2,0 0,-2z M53,31l2,0 0,2 -2,0 0,-2z M57,31l2,0 0,2 -2,0 0,-2z M59,31l2,0 0,2 -2,0 0,-2z M61,31l2,0 0,2 -2,0 0,-2z M9,33l2,0 0,2 -2,0 0,-2z M13,33l2,0 0,2 -2,0 0,-2z M17,33l2,0 0,2 -2,0 0,-2z M19,33l2,0 0,2 -2,0 0,-2z M25,33l2,0 0,2 -2,0 0,-2z M27,33l2,0 0,2 -2,0 0,-2z M29,33l2,0 0,2 -2,0 0,-2z M37,33l2,0 0,2 -2,0 0,-2z M39,33l2,0 0,2 -2,0 0,-2z M43,33l2,0 0,2 -2,0 0,-2z M45,33l2,0 0,2 -2,0 0,-2z M47,33l2,0 0,2 -2,0 0,-2z M51,33l2,0 0,2 -2,0 0,-2z M53,33l2,0 0,2 -2,0 0,-2z M57,33l2,0 0,2 -2,0 0,-2z M59,33l2,0 0,2 -2,0 0,-2z M61,33l2,0 0,2 -2,0 0,-2z M1,35l2,0 0,2 -2,0 0,-2z M3,35l2,0 0,2 -2,0 0,-2z M5,35l2,0 0,2 -2,0 0,-2z M7,35l2,0 0,2 -2,0 0,-2z M9,35l2,0 0,2 -2,0 0,-2z M11,35l2,0 0,2 -2,0 0,-2z M17,35l2,0 0,2 -2,0 0,-2z M21,35l2,0 0,2 -2,0 0,-2z M25,35l2,0 0,2 -2,0 0,-2z M27,35l2,0 0,2 -2,0 0,-2z M31,35l2,0 0,2 -2,0 0,-2z M41,35l2,0 0,2 -2,0 0,-2z M43,35l2,0 0,2 -2,0 0,-2z M45,35l2,0 0,2 -2,0 0,-2z M47,35l2,0 0,2 -2,0 0,-2z M49,35l2,0 0,2 -2,0 0,-2z M51,35l2,0 0,2 -2,0 0,-2z M53,35l2,0 0,2 -2,0 0,-2z M57,35l2,0 0,2 -2,0 0,-2z M59,35l2,0 0,2 -2,0 0,-2z M63,35l2,0 0,2 -2,0 0,-2z M65,35l2,0 0,2 -2,0 0,-2z M3,37l2,0 0,2 -2,0 0,-2z M5,37l2,0 0,2 -2,0 0,-2z M9,37l2,0 0,2 -2,0 0,-2z M11,37l2,0 0,2 -2,0 0,-2z M13,37l2,0 0,2 -2,0 0,-2z M17,37l2,0 0,2 -2,0 0,-2z M23,37l2,0 0,2 -2,0 0,-2z M29,37l2,0 0,2 -2,0 0,-2z M31,37l2,0 0,2 -2,0 0,-2z M33,37l2,0 0,2 -2,0 0,-2z M37,37l2,0 0,2 -2,0 0,-2z M41,37l2,0 0,2 -2,0 0,-2z M45,37l2,0 0,2 -2,0 0,-2z M49,37l2,0 0,2 -2,0 0,-2z M55,37l2,0 0,2 -2,0 0,-2z M57,37l2,0 0,2 -2,0 0,-2z M61,37l2,0 0,2 -2,0 0,-2z M63,37l2,0 0,2 -2,0 0,-2z M1,39l2,0 0,2 -2,0 0,-2z M5,39l2,0 0,2 -2,0 0,-2z M11,39l2,0 0,2 -2,0 0,-2z M21,39l2,0 0,2 -2,0 0,-2z M23,39l2,0 0,2 -2,0 0,-2z M27,39l2,0 0,2 -2,0 0,-2z M33,39l2,0 0,2 -2,0 0,-2z M35,39l2,0 0,2 -2,0 0,-2z M37,39l2,0 0,2 -2,0 0,-2z M39,39l2,0 0,2 -2,0 0,-2z M45,39l2,0 0,2 -2,0 0,-2z M47,39l2,0 0,2 -2,0 0,-2z M49,39l2,0 0,2 -2,0 0,-2z M51,39l2,0 0,2 -2,0 0,-2z M53,39l2,0 0,2 -2,0 0,-2z M57,39l2,0 0,2 -2,0 0,-2z M63,39l2,0 0,2 -2,0 0,-2z M1,41l2,0 0,2 -2,0 0,-2z M5,41l2,0 0,2 -2,0 0,-2z M11,41l2,0 0,2 -2,0 0,-2z M13,41l2,0 0,2 -2,0 0,-2z M17,41l2,0 0,2 -2,0 0,-2z M29,41l2,0 0,2 -2,0 0,-2z M31,41l2,0 0,2 -2,0 0,-2z M33,41l2,0 0,2 -2,0 0,-2z M43,41l2,0 0,2 -2,0 0,-2z M59,41l2,0 0,2 -2,0 0,-2z M61,41l2,0 0,2 -2,0 0,-2z M63,41l2,0 0,2 -2,0 0,-2z M65,41l2,0 0,2 -2,0 0,-2z M1,43l2,0 0,2 -2,0 0,-2z M7,43l2,0 0,2 -2,0 0,-2z M11,43l2,0 0,2 -2,0 0,-2z M17,43l2,0 0,2 -2,0 0,-2z M21,43l2,0 0,2 -2,0 0,-2z M23,43l2,0 0,2 -2,0 0,-2z M25,43l2,0 0,2 -2,0 0,-2z M31,43l2,0 0,2 -2,0 0,-2z M33,43l2,0 0,2 -2,0 0,-2z M35,43l2,0 0,2 -2,0 0,-2z M39,43l2,0 0,2 -2,0 0,-2z M41,43l2,0 0,2 -2,0 0,-2z M43,43l2,0 0,2 -2,0 0,-2z M45,43l2,0 0,2 -2,0 0,-2z M47,43l2,0 0,2 -2,0 0,-2z M53,43l2,0 0,2 -2,0 0,-2z M59,43l2,0 0,2 -2,0 0,-2z M65,43l2,0 0,2 -2,0 0,-2z M9,45l2,0 0,2 -2,0 0,-2z M13,45l2,0 0,2 -2,0 0,-2z M17,45l2,0 0,2 -2,0 0,-2z M19,45l2,0 0,2 -2,0 0,-2z M23,45l2,0 0,2 -2,0 0,-2z M25,45l2,0 0,2 -2,0 0,-2z M29,45l2,0 0,2 -2,0 0,-2z M31,45l2,0 0,2 -2,0 0,-2z M37,45l2,0 0,2 -2,0 0,-2z M43,45l2,0 0,2 -2,0 0,-2z M47,45l2,0 0,2 -2,0 0,-2z M51,45l2,0 0,2 -2,0 0,-2z M53,45l2,0 0,2 -2,0 0,-2z M55,45l2,0 0,2 -2,0 0,-2z M59,45l2,0 0,2 -2,0 0,-2z M63,45l2,0 0,2 -2,0 0,-2z M65,45l2,0 0,2 -2,0 0,-2z M3,47l2,0 0,2 -2,0 0,-2z M5,47l2,0 0,2 -2,0 0,-2z M7,47l2,0 0,2 -2,0 0,-2z M11,47l2,0 0,2 -2,0 0,-2z M15,47l2,0 0,2 -2,0 0,-2z M17,47l2,0 0,2 -2,0 0,-2z M19,47l2,0 0,2 -2,0 0,-2z M23,47l2,0 0,2 -2,0 0,-2z M25,47l2,0 0,2 -2,0 0,-2z M27,47l2,0 0,2 -2,0 0,-2z M29,47l2,0 0,2 -2,0 0,-2z M31,47l2,0 0,2 -2,0 0,-2z M53,47l2,0 0,2 -2,0 0,-2z M55,47l2,0 0,2 -2,0 0,-2z M57,47l2,0 0,2 -2,0 0,-2z M59,47l2,0 0,2 -2,0 0,-2z M65,47l2,0 0,2 -2,0 0,-2z M1,49l2,0 0,2 -2,0 0,-2z M7,49l2,0 0,2 -2,0 0,-2z M9,49l2,0 0,2 -2,0 0,-2z M11,49l2,0 0,2 -2,0 0,-2z M13,49l2,0 0,2 -2,0 0,-2z M15,49l2,0 0,2 -2,0 0,-2z M19,49l2,0 0,2 -2,0 0,-2z M23,49l2,0 0,2 -2,0 0,-2z M25,49l2,0 0,2 -2,0 0,-2z M35,49l2,0 0,2 -2,0 0,-2z M39,49l2,0 0,2 -2,0 0,-2z M45,49l2,0 0,2 -2,0 0,-2z M47,49l2,0 0,2 -2,0 0,-2z M49,49l2,0 0,2 -2,0 0,-2z M51,49l2,0 0,2 -2,0 0,-2z M53,49l2,0 0,2 -2,0 0,-2z M55,49l2,0 0,2 -2,0 0,-2z M57,49l2,0 0,2 -2,0 0,-2z M17,51l2,0 0,2 -2,0 0,-2z M19,51l2,0 0,2 -2,0 0,-2z M21,51l2,0 0,2 -2,0 0,-2z M29,51l2,0 0,2 -2,0 0,-2z M31,51l2,0 0,2 -2,0 0,-2z M39,51l2,0 0,2 -2,0 0,-2z M41,51l2,0 0,2 -2,0 0,-2z M49,51l2,0 0,2 -2,0 0,-2z M57,51l2,0 0,2 -2,0 0,-2z M59,51l2,0 0,2 -2,0 0,-2z M1,53l2,0 0,2 -2,0 0,-2z M3,53l2,0 0,2 -2,0 0,-2z M5,53l2,0 0,2 -2,0 0,-2z M7,53l2,0 0,2 -2,0 0,-2z M9,53l2,0 0,2 -2,0 0,-2z M11,53l2,0 0,2 -2,0 0,-2z M13,53l2,0 0,2 -2,0 0,-2z M17,53l2,0 0,2 -2,0 0,-2z M19,53l2,0 0,2 -2,0 0,-2z M21,53l2,0 0,2 -2,0 0,-2z M27,53l2,0 0,2 -2,0 0,-2z M35,53l2,0 0,2 -2,0 0,-2z M37,53l2,0 0,2 -2,0 0,-2z M39,53l2,0 0,2 -2,0 0,-2z M41,53l2,0 0,2 -2,0 0,-2z M43,53l2,0 0,2 -2,0 0,-2z M47,53l2,0 0,2 -2,0 0,-2z M49,53l2,0 0,2 -2,0 0,-2z M53,53l2,0 0,2 -2,0 0,-2z M57,53l2,0 0,2 -2,0 0,-2z M1,55l2,0 0,2 -2,0 0,-2z M13,55l2,0 0,2 -2,0 0,-2z M17,55l2,0 0,2 -2,0 0,-2z M19,55l2,0 0,2 -2,0 0,-2z M21,55l2,0 0,2 -2,0 0,-2z M25,55l2,0 0,2 -2,0 0,-2z M27,55l2,0 0,2 -2,0 0,-2z M33,55l2,0 0,2 -2,0 0,-2z M35,55l2,0 0,2 -2,0 0,-2z M37,55l2,0 0,2 -2,0 0,-2z M41,55l2,0 0,2 -2,0 0,-2z M43,55l2,0 0,2 -2,0 0,-2z M45,55l2,0 0,2 -2,0 0,-2z M47,55l2,0 0,2 -2,0 0,-2z M49,55l2,0 0,2 -2,0 0,-2z M57,55l2,0 0,2 -2,0 0,-2z M59,55l2,0 0,2 -2,0 0,-2z M61,55l2,0 0,2 -2,0 0,-2z M63,55l2,0 0,2 -2,0 0,-2z M65,55l2,0 0,2 -2,0 0,-2z M1,57l2,0 0,2 -2,0 0,-2z M5,57l2,0 0,2 -2,0 0,-2z M7,57l2,0 0,2 -2,0 0,-2z M9,57l2,0 0,2 -2,0 0,-2z M13,57l2,0 0,2 -2,0 0,-2z M19,57l2,0 0,2 -2,0 0,-2z M23,57l2,0 0,2 -2,0 0,-2z M29,57l2,0 0,2 -2,0 0,-2z M33,57l2,0 0,2 -2,0 0,-2z M35,57l2,0 0,2 -2,0 0,-2z M37,57l2,0 0,2 -2,0 0,-2z M39,57l2,0 0,2 -2,0 0,-2z M41,57l2,0 0,2 -2,0 0,-2z M43,57l2,0 0,2 -2,0 0,-2z M45,57l2,0 0,2 -2,0 0,-2z M47,57l2,0 0,2 -2,0 0,-2z M49,57l2,0 0,2 -2,0 0,-2z M51,57l2,0 0,2 -2,0 0,-2z M53,57l2,0 0,2 -2,0 0,-2z M55,57l2,0 0,2 -2,0 0,-2z M57,57l2,0 0,2 -2,0 0,-2z M61,57l2,0 0,2 -2,0 0,-2z M65,57l2,0 0,2 -2,0 0,-2z M1,59l2,0 0,2 -2,0 0,-2z M5,59l2,0 0,2 -2,0 0,-2z M7,59l2,0 0,2 -2,0 0,-2z M9,59l2,0 0,2 -2,0 0,-2z M13,59l2,0 0,2 -2,0 0,-2z M17,59l2,0 0,2 -2,0 0,-2z M27,59l2,0 0,2 -2,0 0,-2z M33,59l2,0 0,2 -2,0 0,-2z M35,59l2,0 0,2 -2,0 0,-2z M41,59l2,0 0,2 -2,0 0,-2z M43,59l2,0 0,2 -2,0 0,-2z M45,59l2,0 0,2 -2,0 0,-2z M47,59l2,0 0,2 -2,0 0,-2z M55,59l2,0 0,2 -2,0 0,-2z M59,59l2,0 0,2 -2,0 0,-2z M65,59l2,0 0,2 -2,0 0,-2z M1,61l2,0 0,2 -2,0 0,-2z M5,61l2,0 0,2 -2,0 0,-2z M7,61l2,0 0,2 -2,0 0,-2z M9,61l2,0 0,2 -2,0 0,-2z M13,61l2,0 0,2 -2,0 0,-2z M17,61l2,0 0,2 -2,0 0,-2z M19,61l2,0 0,2 -2,0 0,-2z M21,61l2,0 0,2 -2,0 0,-2z M23,61l2,0 0,2 -2,0 0,-2z M27,61l2,0 0,2 -2,0 0,-2z M29,61l2,0 0,2 -2,0 0,-2z M31,61l2,0 0,2 -2,0 0,-2z M33,61l2,0 0,2 -2,0 0,-2z M35,61l2,0 0,2 -2,0 0,-2z M41,61l2,0 0,2 -2,0 0,-2z M45,61l2,0 0,2 -2,0 0,-2z M53,61l2,0 0,2 -2,0 0,-2z M55,61l2,0 0,2 -2,0 0,-2z M1,63l2,0 0,2 -2,0 0,-2z M13,63l2,0 0,2 -2,0 0,-2z M19,63l2,0 0,2 -2,0 0,-2z M21,63l2,0 0,2 -2,0 0,-2z M25,63l2,0 0,2 -2,0 0,-2z M27,63l2,0 0,2 -2,0 0,-2z M29,63l2,0 0,2 -2,0 0,-2z M35,63l2,0 0,2 -2,0 0,-2z M37,63l2,0 0,2 -2,0 0,-2z M41,63l2,0 0,2 -2,0 0,-2z M45,63l2,0 0,2 -2,0 0,-2z M47,63l2,0 0,2 -2,0 0,-2z M49,63l2,0 0,2 -2,0 0,-2z M51,63l2,0 0,2 -2,0 0,-2z M55,63l2,0 0,2 -2,0 0,-2z M57,63l2,0 0,2 -2,0 0,-2z M65,63l2,0 0,2 -2,0 0,-2z M1,65l2,0 0,2 -2,0 0,-2z M3,65l2,0 0,2 -2,0 0,-2z M5,65l2,0 0,2 -2,0 0,-2z M7,65l2,0 0,2 -2,0 0,-2z M9,65l2,0 0,2 -2,0 0,-2z M11,65l2,0 0,2 -2,0 0,-2z M13,65l2,0 0,2 -2,0 0,-2z M17,65l2,0 0,2 -2,0 0,-2z M21,65l2,0 0,2 -2,0 0,-2z M23,65l2,0 0,2 -2,0 0,-2z M29,65l2,0 0,2 -2,0 0,-2z M35,65l2,0 0,2 -2,0 0,-2z M37,65l2,0 0,2 -2,0 0,-2z M43,65l2,0 0,2 -2,0 0,-2z M47,65l2,0 0,2 -2,0 0,-2z M51,65l2,0 0,2 -2,0 0,-2z M57,65l2,0 0,2 -2,0 0,-2z M59,65l2,0 0,2 -2,0 0,-2z M61,65l2,0 0,2 -2,0 0,-2z " stroke="transparent" fill="#1a1a1a"></path></svg>